<svg width="1500" height="500" viewBox="0 0 1500 500" fill="none" xmlns="http://www.w3.org/2000/svg">
<g filter="url(#filter0_f_3_4)">
<rect width="43.6574" height="203.975" transform="matrix(0.994522 0.104528 0 1 44 74)" fill="#7E93AB"/>
<path d="M44 277.975L44 223.365L206.131 240.405V295.015L44 277.975Z" fill="#7E93AB"/>
<rect width="43.6574" height="101.961" rx="21.8287" transform="matrix(-0.994522 -0.104529 6.95066e-08 -1 293.284 303.124)" fill="#7E93AB"/>
<rect width="43.6574" height="54.6098" rx="21.8287" transform="matrix(-0.994522 -0.104529 6.95066e-08 -1 293.284 153.811)" fill="#7E93AB"/>
<rect width="43.6574" height="203.923" transform="matrix(0.994522 0.104528 0 1 1034.54 177.11)" fill="#7E93AB"/>
<rect width="54.6098" height="163.024" transform="matrix(0 -1 0.994522 0.104528 1034.54 231.72)" fill="#7E93AB"/>
<rect width="54.6098" height="100.757" transform="matrix(0 -1 0.994522 0.104528 1034.54 306.722)" fill="#7E93AB"/>
<rect width="54.6098" height="163.024" transform="matrix(0 -1 0.994522 0.104528 1034.54 381.724)" fill="#7E93AB"/>
<path d="M1305.54 409.568L1283.83 203.311L1240.41 198.748L1262.12 405.004L1305.54 409.568Z" fill="#7E93AB"/>
<path d="M1327.25 207.875L1262.12 405.004L1305.54 409.568L1369.29 212.294L1327.25 207.875Z" fill="#7E93AB"/>
<path d="M1414.08 217.002L1348.96 414.131L1392.37 418.694L1456.13 221.421L1414.08 217.002Z" fill="#7E93AB"/>
<path d="M1392.37 418.694L1370.66 212.438L1327.25 207.875L1348.96 414.131L1392.37 418.694Z" fill="#7E93AB"/>
<rect width="43.6574" height="203.923" transform="matrix(0.994522 0.104528 0 1 860.502 158.818)" fill="#7E93AB"/>
<path d="M903.921 265.343L947.339 269.906L990.757 376.431L947.335 371.871L903.921 265.343Z" fill="#7E93AB"/>
<rect width="130.972" height="101.961" rx="50.9807" transform="matrix(0.994522 0.104528 0 1 860.502 158.818)" fill="#7E93AB"/>
<path d="M555.393 229.674L598.811 234.237L642.23 340.762L598.807 336.202L555.393 229.674Z" fill="#7E93AB"/>
<path d="M598.865 132.017L642.23 136.575L579.521 277.406L555.451 229.42L598.865 132.017Z" fill="#7E93AB"/>
<rect width="43.6574" height="203.923" transform="matrix(0.994522 0.104528 0 1 511.425 122.827)" fill="#7E93AB"/>
<rect width="46.6372" height="194.506" transform="matrix(-0.80625 0.500734 -0.416777 -0.951758 461.868 294.535)" fill="#7E93AB"/>
<rect width="43.6574" height="203.923" transform="matrix(0.994522 0.104528 0 1 337.384 104.836)" fill="#7E93AB"/>
<rect width="43.6574" height="203.923" transform="matrix(0.994522 0.104528 0 1 424.221 113.963)" fill="#7E93AB"/>
<path d="M808.247 306.268C800.697 325.903 788.847 340.365 774.715 347.189C760.584 354.013 745.045 352.777 730.747 343.692C716.449 334.606 704.276 318.234 696.303 297.364C688.329 276.494 685.049 252.417 687.019 229.237C688.99 206.056 696.091 185.206 707.111 170.239C718.132 155.272 732.39 147.114 747.457 147.155C762.524 147.195 777.468 155.433 789.741 170.463C802.014 185.493 810.859 206.386 814.767 229.583L751.726 249.346L808.247 306.268Z" fill="#7E93AB"/>
</g>
<g filter="url(#filter1_f_3_4)">
<rect width="43.6574" height="203.975" transform="matrix(0.994522 0.104528 0 1 55 57)" fill="#7E93AB"/>
<path d="M55 260.975L55 206.365L217.131 223.405V278.015L55 260.975Z" fill="#7E93AB"/>
<rect width="43.6574" height="101.961" rx="21.8287" transform="matrix(-0.994522 -0.104529 6.95066e-08 -1 304.284 286.124)" fill="#7E93AB"/>
<rect width="43.6574" height="54.6098" rx="21.8287" transform="matrix(-0.994522 -0.104529 6.95066e-08 -1 304.284 136.811)" fill="#7E93AB"/>
<rect width="43.6574" height="203.923" transform="matrix(0.994522 0.104528 0 1 1045.54 160.11)" fill="#7E93AB"/>
<rect width="54.6098" height="163.024" transform="matrix(0 -1 0.994522 0.104528 1045.54 214.72)" fill="#7E93AB"/>
<rect width="54.6098" height="100.757" transform="matrix(0 -1 0.994522 0.104528 1045.54 289.722)" fill="#7E93AB"/>
<rect width="54.6098" height="163.024" transform="matrix(0 -1 0.994522 0.104528 1045.54 364.724)" fill="#7E93AB"/>
<path d="M1316.54 392.568L1294.83 186.311L1251.41 181.748L1273.12 388.004L1316.54 392.568Z" fill="#7E93AB"/>
<path d="M1338.25 190.875L1273.12 388.004L1316.54 392.568L1380.29 195.294L1338.25 190.875Z" fill="#7E93AB"/>
<path d="M1425.08 200.002L1359.96 397.131L1403.37 401.694L1467.13 204.421L1425.08 200.002Z" fill="#7E93AB"/>
<path d="M1403.37 401.694L1381.66 195.438L1338.25 190.875L1359.96 397.131L1403.37 401.694Z" fill="#7E93AB"/>
<rect width="43.6574" height="203.923" transform="matrix(0.994522 0.104528 0 1 871.502 141.818)" fill="#7E93AB"/>
<path d="M914.921 248.343L958.339 252.906L1001.76 359.431L958.335 354.871L914.921 248.343Z" fill="#7E93AB"/>
<rect width="130.972" height="101.961" rx="50.9807" transform="matrix(0.994522 0.104528 0 1 871.502 141.818)" fill="#7E93AB"/>
<path d="M566.393 212.674L609.811 217.237L653.23 323.762L609.807 319.202L566.393 212.674Z" fill="#7E93AB"/>
<path d="M609.865 115.017L653.23 119.575L590.521 260.406L566.451 212.42L609.865 115.017Z" fill="#7E93AB"/>
<rect width="43.6574" height="203.923" transform="matrix(0.994522 0.104528 0 1 522.425 105.827)" fill="#7E93AB"/>
<rect width="46.6372" height="194.506" transform="matrix(-0.80625 0.500734 -0.416777 -0.951758 472.868 277.535)" fill="#7E93AB"/>
<rect width="43.6574" height="203.923" transform="matrix(0.994522 0.104528 0 1 348.384 87.8359)" fill="#7E93AB"/>
<rect width="43.6574" height="203.923" transform="matrix(0.994522 0.104528 0 1 435.221 96.9628)" fill="#7E93AB"/>
<path d="M819.247 289.268C811.697 308.903 799.847 323.365 785.715 330.189C771.584 337.013 756.045 335.777 741.747 326.692C727.449 317.606 715.276 301.234 707.303 280.364C699.329 259.494 696.049 235.417 698.019 212.237C699.99 189.056 707.091 168.206 718.111 153.239C729.132 138.272 743.39 130.114 758.457 130.155C773.524 130.195 788.468 138.433 800.741 153.463C813.014 168.493 821.859 189.386 825.767 212.583L762.726 232.346L819.247 289.268Z" fill="#7E93AB"/>
</g>
<rect width="43.6574" height="203.975" transform="matrix(0.994522 0.104528 0 1 33 90)" fill="#2E3851"/>
<path d="M33 293.975L33 239.365L195.131 256.405V311.015L33 293.975Z" fill="#2E3851"/>
<rect width="43.6574" height="101.961" rx="21.8287" transform="matrix(-0.994522 -0.104529 6.95066e-08 -1 282.284 319.124)" fill="#2E3851"/>
<rect width="43.6574" height="54.6098" rx="21.8287" transform="matrix(-0.994522 -0.104529 6.95066e-08 -1 282.284 169.811)" fill="#2E3851"/>
<rect width="43.6574" height="203.923" transform="matrix(0.994522 0.104528 0 1 1023.54 193.11)" fill="#2E3851"/>
<rect width="54.6098" height="163.024" transform="matrix(0 -1 0.994522 0.104528 1023.54 247.72)" fill="#2E3851"/>
<rect width="54.6098" height="100.757" transform="matrix(0 -1 0.994522 0.104528 1023.54 322.722)" fill="#2E3851"/>
<rect width="54.6098" height="163.024" transform="matrix(0 -1 0.994522 0.104528 1023.54 397.724)" fill="#2E3851"/>
<path d="M1294.54 425.568L1272.83 219.311L1229.41 214.748L1251.12 421.004L1294.54 425.568Z" fill="#2E3851"/>
<path d="M1316.25 223.875L1251.12 421.004L1294.54 425.568L1358.29 228.294L1316.25 223.875Z" fill="#2E3851"/>
<path d="M1403.08 233.002L1337.96 430.131L1381.37 434.694L1445.13 237.421L1403.08 233.002Z" fill="#2E3851"/>
<path d="M1381.37 434.694L1359.66 228.438L1316.25 223.875L1337.96 430.131L1381.37 434.694Z" fill="#2E3851"/>
<rect width="43.6574" height="203.923" transform="matrix(0.994522 0.104528 0 1 849.502 174.818)" fill="#2E3851"/>
<path d="M892.921 281.343L936.339 285.906L979.757 392.431L936.335 387.871L892.921 281.343Z" fill="#2E3851"/>
<rect width="130.972" height="101.961" rx="50.9807" transform="matrix(0.994522 0.104528 0 1 849.502 174.818)" fill="#2E3851"/>
<path d="M544.393 245.674L587.811 250.237L631.23 356.762L587.807 352.202L544.393 245.674Z" fill="#2E3851"/>
<path d="M587.865 148.017L631.23 152.575L568.521 293.406L544.451 245.42L587.865 148.017Z" fill="#2E3851"/>
<rect width="43.6574" height="203.923" transform="matrix(0.994522 0.104528 0 1 500.425 138.827)" fill="#2E3851"/>
<rect width="46.6372" height="194.506" transform="matrix(-0.80625 0.500734 -0.416777 -0.951758 450.868 310.535)" fill="#2E3851"/>
<rect width="43.6574" height="203.923" transform="matrix(0.994522 0.104528 0 1 326.384 120.836)" fill="#2E3851"/>
<rect width="43.6574" height="203.923" transform="matrix(0.994522 0.104528 0 1 413.221 129.963)" fill="#2E3851"/>
<path d="M797.247 322.268C789.697 341.903 777.847 356.365 763.715 363.189C749.584 370.013 734.045 368.777 719.747 359.692C705.449 350.606 693.276 334.234 685.303 313.364C677.329 292.494 674.049 268.417 676.019 245.237C677.99 222.056 685.091 201.206 696.111 186.239C707.132 171.272 721.39 163.114 736.457 163.155C751.524 163.195 766.468 171.433 778.741 186.463C791.014 201.493 799.859 222.386 803.767 245.583L740.726 265.346L797.247 322.268Z" fill="#2E3851"/>
<rect width="43.6574" height="54.6098" rx="21.8287" transform="matrix(0.994522 0.104528 0 1 730 183)" fill="#8290C8"/>
<defs>
<filter id="filter0_f_3_4" x="40" y="70" width="1420.13" height="352.694" filterUnits="userSpaceOnUse" color-interpolation-filters="sRGB">
<feFlood flood-opacity="0" result="BackgroundImageFix"/>
<feBlend mode="normal" in="SourceGraphic" in2="BackgroundImageFix" result="shape"/>
<feGaussianBlur stdDeviation="2" result="effect1_foregroundBlur_3_4"/>
</filter>
<filter id="filter1_f_3_4" x="51" y="53" width="1420.13" height="352.694" filterUnits="userSpaceOnUse" color-interpolation-filters="sRGB">
<feFlood flood-opacity="0" result="BackgroundImageFix"/>
<feBlend mode="normal" in="SourceGraphic" in2="BackgroundImageFix" result="shape"/>
<feGaussianBlur stdDeviation="2" result="effect1_foregroundBlur_3_4"/>
</filter>
</defs>
</svg>
